<svg xmlns="http://www.w3.org/2000/svg" xmlns:xlink="http://www.w3.org/1999/xlink" width="500" zoomAndPan="magnify" viewBox="0 0 375 374.999991" height="500" preserveAspectRatio="xMidYMid meet" version="1.0"><defs><g/><clipPath id="b0999defc5"><path d="M 105 72.585938 L 278 72.585938 L 278 226 L 105 226 Z M 105 72.585938 " clip-rule="nonzero"/></clipPath></defs><g clip-path="url(#b0999defc5)"><path fill="#022179" d="M 188.808594 73.058594 C 186.601562 73.628906 185.15625 74.5 182.910156 76.628906 C 177.890625 81.335938 174.769531 89.078125 173.515625 100.011719 C 171.878906 113.753906 174.277344 131.523438 179.828125 146.628906 L 180.554688 148.644531 L 177.929688 153.652344 C 174.65625 159.957031 174.007812 161.09375 171.957031 164.285156 C 171.042969 165.6875 170.28125 166.941406 170.28125 167.054688 C 170.28125 167.207031 168.265625 170.242188 166.859375 172.179688 C 166.742188 172.332031 164.839844 172.824219 162.671875 173.28125 C 160.46875 173.734375 157.726562 174.34375 156.585938 174.648438 C 149.738281 176.546875 147.152344 177.378906 142.703125 179.089844 C 124.136719 186.265625 110.632812 196.96875 106.144531 208.015625 C 105.269531 210.21875 105.078125 211.242188 105.039062 214.089844 C 105.039062 217.242188 105.152344 217.699219 106.21875 219.59375 C 108.539062 223.734375 112.421875 225.632812 119.117188 225.933594 C 127.75 226.351562 137.375 223.390625 148.027344 217.015625 C 150.917969 215.304688 154.949219 212.648438 156.394531 211.546875 C 164.421875 205.359375 172.03125 198.109375 177.054688 191.882812 L 177.8125 190.933594 L 204.976562 190.933594 L 205.738281 191.882812 C 210.757812 198.109375 218.367188 205.359375 226.394531 211.546875 C 227.839844 212.648438 231.871094 215.304688 234.761719 217.015625 C 245.414062 223.390625 255.039062 226.351562 263.675781 225.933594 C 270.371094 225.632812 274.25 223.734375 276.570312 219.59375 C 277.636719 217.699219 277.75 217.242188 277.75 214.089844 C 277.710938 211.242188 277.519531 210.21875 276.644531 208.015625 C 272.15625 196.96875 258.652344 186.265625 240.089844 179.089844 C 235.636719 177.378906 233.050781 176.546875 226.203125 174.648438 C 225.0625 174.34375 222.324219 173.734375 220.117188 173.28125 C 217.949219 172.824219 216.046875 172.332031 215.933594 172.179688 C 214.523438 170.242188 212.507812 167.207031 212.507812 167.054688 C 212.507812 166.941406 211.746094 165.6875 210.835938 164.285156 C 208.78125 161.09375 208.132812 159.957031 204.863281 153.652344 L 202.238281 148.644531 L 202.960938 146.628906 C 203.378906 145.53125 204.214844 142.910156 204.824219 140.824219 C 211.441406 118.84375 211.480469 97.808594 204.976562 83.6875 C 203.074219 79.589844 199.078125 75.148438 196.035156 73.816406 C 194.019531 72.90625 190.75 72.601562 188.808594 73.058594 Z M 195.617188 74.765625 C 205.773438 79.285156 211.214844 99.632812 208.171875 121.839844 C 207.03125 129.964844 204.367188 140.898438 202.238281 146.136719 L 201.78125 147.277344 L 200.640625 144.882812 L 199.496094 142.53125 L 200.867188 137.671875 C 203.988281 126.8125 205.28125 118.007812 205.28125 108.097656 C 205.28125 97.507812 203.683594 89.535156 200.523438 84.257812 C 197.746094 79.664062 195.160156 77.84375 191.394531 77.84375 C 187.628906 77.84375 185.042969 79.664062 182.265625 84.257812 C 179.105469 89.535156 177.507812 97.507812 177.507812 108.097656 C 177.507812 118.007812 178.804688 126.8125 181.921875 137.671875 L 183.292969 142.53125 L 182.152344 144.882812 L 181.007812 147.277344 L 180.554688 146.136719 C 179.375 143.214844 176.671875 133.609375 175.796875 129.015625 C 171.460938 106.84375 174.390625 86.382812 183.101562 77.765625 C 187.285156 73.589844 190.976562 72.71875 195.617188 74.765625 Z M 193.183594 78.753906 C 195.65625 79.4375 198.621094 82.585938 200.523438 86.496094 C 203.453125 92.535156 204.519531 98.378906 204.519531 108.175781 C 204.519531 117.285156 203.265625 125.828125 200.488281 136.039062 C 199.765625 138.660156 199.117188 140.824219 199.042969 140.898438 C 198.964844 140.972656 198.433594 139.757812 197.863281 138.164062 L 196.796875 135.242188 L 197.976562 130.457031 C 200.449219 120.589844 200.90625 117.058594 200.90625 106.84375 C 200.90625 97.011719 200.640625 94.847656 198.8125 90.066406 C 197.824219 87.410156 195.960938 84.597656 194.515625 83.535156 C 193.03125 82.433594 189.757812 82.433594 188.273438 83.535156 C 186.828125 84.597656 184.964844 87.410156 183.976562 90.066406 C 182.152344 94.847656 181.882812 97.011719 181.882812 106.84375 C 181.882812 117.058594 182.339844 120.589844 184.8125 130.457031 L 185.992188 135.242188 L 184.925781 138.164062 C 184.355469 139.757812 183.824219 140.972656 183.75 140.898438 C 183.445312 140.59375 180.972656 131.066406 180.210938 127.34375 C 178.347656 117.929688 177.699219 106.164062 178.6875 98.988281 C 179.792969 90.9375 182.492188 84.332031 186.070312 81.105469 C 188.847656 78.5625 190.519531 78.03125 193.183594 78.753906 Z M 193.070312 83.839844 C 195.65625 85.207031 197.863281 89.003906 199.269531 94.582031 C 200.03125 97.582031 200.144531 98.875 200.144531 106.84375 C 200.105469 114.398438 199.992188 116.488281 199.269531 120.511719 C 198.089844 126.964844 196.492188 133.417969 196.113281 133.191406 C 195.921875 133.078125 195.425781 131.789062 194.96875 130.269531 L 194.171875 127.535156 L 194.96875 123.929688 C 197.175781 113.867188 197.898438 103.085938 196.757812 96.59375 C 195.730469 90.671875 193.828125 87.484375 191.394531 87.484375 C 185.382812 87.484375 183.671875 105.097656 187.820312 123.929688 L 188.617188 127.535156 L 187.820312 130.269531 C 187.363281 131.789062 186.867188 133.078125 186.675781 133.191406 C 186.296875 133.417969 184.699219 126.964844 183.519531 120.511719 C 182.796875 116.488281 182.683594 114.398438 182.644531 106.84375 C 182.644531 98.875 182.757812 97.582031 183.519531 94.582031 C 184.890625 89.117188 186.867188 85.585938 189.492188 84.03125 C 190.863281 83.15625 191.660156 83.117188 193.070312 83.839844 Z M 193.105469 89.382812 C 197.140625 93.671875 197.558594 109.046875 194.132812 123.929688 L 193.640625 126.015625 L 192.726562 122.371094 C 191.851562 118.765625 191.851562 118.652344 192.460938 115.539062 C 193.523438 110.074219 193.980469 105.023438 193.792969 100.050781 C 193.5625 94.394531 192.953125 92.417969 191.394531 92.417969 C 189.835938 92.417969 189.226562 94.394531 189 100.050781 C 188.808594 105.023438 189.265625 110.074219 190.328125 115.539062 C 190.9375 118.652344 190.9375 118.765625 190.0625 122.371094 L 189.148438 126.015625 L 188.65625 123.929688 C 186.714844 115.425781 185.765625 104.113281 186.601562 98.304688 C 187.398438 92.609375 189.492188 88.242188 191.394531 88.242188 C 191.738281 88.242188 192.535156 88.773438 193.105469 89.382812 Z M 192.765625 96.558594 C 193.335938 99.289062 193.03125 107.1875 192.117188 112.730469 C 191.320312 117.550781 191.28125 117.4375 190.214844 109.351562 C 189.453125 103.351562 189.605469 96.785156 190.597656 94.507812 C 191.203125 93.101562 191.28125 93.027344 191.773438 93.710938 C 192.078125 94.089844 192.496094 95.378906 192.765625 96.558594 Z M 192.6875 129.207031 C 192.460938 130.34375 192.042969 131.863281 191.8125 132.621094 L 191.320312 133.949219 L 190.480469 130.800781 L 189.644531 127.648438 L 190.519531 124.042969 L 191.355469 120.4375 L 192.230469 123.777344 C 193.03125 126.738281 193.070312 127.421875 192.6875 129.207031 Z M 190.0625 132.355469 L 190.863281 135.28125 L 190.023438 137.976562 C 189.53125 139.417969 189.035156 140.632812 188.921875 140.632812 C 188.808594 140.632812 188.3125 139.457031 187.855469 138.011719 L 186.980469 135.355469 L 188.046875 132.128906 C 188.617188 130.34375 189.148438 129.015625 189.148438 129.167969 C 189.1875 129.320312 189.605469 130.761719 190.0625 132.355469 Z M 194.96875 137.859375 C 194.476562 139.378906 194.019531 140.632812 193.867188 140.632812 C 193.714844 140.632812 193.222656 139.378906 192.765625 137.859375 L 191.925781 135.128906 L 192.6875 132.660156 C 193.105469 131.292969 193.488281 129.851562 193.488281 129.433594 C 193.523438 129.015625 194.019531 130.117188 194.667969 131.902344 L 195.808594 135.128906 Z M 187.515625 139.722656 C 188.390625 142.304688 188.390625 142.339844 187.703125 144.050781 C 187.324219 145 186.90625 146.0625 186.792969 146.402344 C 186.410156 147.542969 186.03125 147.164062 185.15625 144.769531 C 184.355469 142.644531 184.320312 142.378906 184.851562 140.898438 C 185.800781 138.277344 186.410156 136.875 186.527344 136.988281 C 186.601562 137.027344 187.019531 138.277344 187.515625 139.722656 Z M 192.6875 140.175781 L 193.449219 142.152344 L 192.421875 145.035156 L 191.433594 147.921875 L 190.519531 145.492188 C 189.378906 142.53125 189.378906 142.152344 190.480469 139.152344 C 191.167969 137.292969 191.394531 136.875 191.621094 137.445312 C 191.773438 137.824219 192.230469 139.074219 192.6875 140.175781 Z M 198.015625 141.089844 C 198.433594 142.339844 198.394531 142.796875 197.632812 144.808594 C 196.757812 147.164062 196.378906 147.542969 195.996094 146.402344 C 195.882812 146.0625 195.464844 145 195.085938 144.050781 C 194.398438 142.339844 194.398438 142.339844 195.3125 139.570312 L 196.226562 136.761719 L 196.910156 138.242188 C 197.253906 139.039062 197.746094 140.328125 198.015625 141.089844 Z M 184.699219 145.949219 C 185.726562 148.605469 185.6875 149.136719 184.394531 151.566406 L 183.367188 153.578125 L 182.417969 151.1875 L 181.429688 148.757812 L 182.570312 146.214844 C 183.214844 144.808594 183.785156 143.707031 183.824219 143.785156 C 183.863281 143.820312 184.28125 144.808594 184.699219 145.949219 Z M 190.023438 146.554688 L 190.863281 148.871094 L 189.835938 151.375 C 189.265625 152.78125 188.730469 153.84375 188.65625 153.769531 C 188.578125 153.691406 188.125 152.554688 187.628906 151.222656 C 186.714844 148.644531 186.714844 148.566406 187.820312 146.0625 C 188.238281 145.1875 188.542969 144.238281 188.542969 144.011719 C 188.542969 143.101562 189.148438 144.199219 190.023438 146.554688 Z M 195.007812 146.136719 C 196.074219 148.566406 196.074219 148.679688 195.160156 151.222656 C 194.667969 152.554688 194.210938 153.691406 194.132812 153.769531 C 194.058594 153.84375 193.523438 152.78125 192.953125 151.339844 L 191.925781 148.757812 L 192.648438 146.898438 C 193.03125 145.832031 193.488281 144.65625 193.675781 144.238281 C 193.90625 143.632812 193.980469 143.59375 194.132812 144.050781 C 194.246094 144.351562 194.628906 145.300781 195.007812 146.136719 Z M 200.371094 151.148438 L 199.421875 153.578125 L 198.394531 151.566406 C 197.101562 149.097656 197.0625 148.71875 198.128906 145.832031 L 198.964844 143.554688 L 200.144531 146.136719 L 201.363281 148.71875 Z M 192.496094 157.414062 L 191.355469 159.691406 L 190.292969 157.375 L 189.1875 155.097656 L 190.292969 152.4375 L 191.394531 149.78125 L 192.496094 152.476562 L 193.601562 155.132812 Z M 182.035156 152.554688 L 182.875 154.945312 L 181.277344 157.945312 C 180.402344 159.574219 178.230469 163.371094 176.40625 166.332031 C 173.363281 171.382812 173.058594 171.761719 171.992188 171.761719 C 171.386719 171.761719 170.207031 171.875 169.40625 172.027344 L 167.960938 172.253906 L 170.433594 168.421875 C 171.839844 166.296875 173.324219 163.902344 173.78125 163.144531 C 176.367188 158.550781 177.320312 156.804688 178.957031 153.617188 C 179.90625 151.71875 180.820312 150.125 180.933594 150.125 C 181.085938 150.125 181.542969 151.222656 182.035156 152.554688 Z M 187.363281 152.742188 L 188.199219 155.019531 L 187.097656 157.222656 L 185.992188 159.386719 L 185.230469 157.90625 C 183.863281 155.171875 183.824219 154.792969 185.003906 152.402344 C 185.574219 151.1875 186.183594 150.273438 186.296875 150.351562 C 186.410156 150.425781 186.90625 151.488281 187.363281 152.742188 Z M 198.8125 154.832031 C 198.8125 155.058594 198.355469 156.199219 197.824219 157.335938 L 196.835938 159.425781 L 195.730469 157.222656 L 194.589844 155.019531 L 195.390625 152.894531 C 195.84375 151.71875 196.300781 150.578125 196.417969 150.390625 C 196.605469 150.046875 198.8125 154.070312 198.8125 154.832031 Z M 203.835938 153.617188 C 205.46875 156.804688 206.421875 158.550781 209.007812 163.144531 C 209.464844 163.902344 210.949219 166.296875 212.355469 168.421875 L 214.828125 172.253906 L 213.382812 172.027344 C 212.585938 171.875 211.40625 171.761719 210.796875 171.761719 C 209.730469 171.761719 209.425781 171.382812 206.382812 166.332031 C 204.558594 163.371094 202.390625 159.574219 201.515625 157.945312 L 199.917969 154.945312 L 200.753906 152.554688 C 201.246094 151.222656 201.703125 150.125 201.855469 150.125 C 201.96875 150.125 202.882812 151.71875 203.835938 153.617188 Z M 184.890625 161.625 C 184.203125 162.953125 182.1875 166.332031 180.4375 169.144531 C 179.375 170.851562 179.296875 170.890625 177.054688 171.15625 C 175.757812 171.269531 174.695312 171.34375 174.617188 171.269531 C 174.582031 171.230469 175.796875 169.105469 177.355469 166.523438 C 178.878906 163.980469 180.894531 160.488281 181.769531 158.816406 L 183.367188 155.78125 L 184.433594 158.09375 C 185.421875 160.335938 185.460938 160.488281 184.890625 161.625 Z M 201.058594 158.855469 C 201.933594 160.523438 203.910156 163.980469 205.433594 166.523438 C 206.992188 169.105469 208.210938 171.230469 208.171875 171.269531 C 208.09375 171.34375 207.03125 171.269531 205.738281 171.15625 C 203.1875 170.890625 203.53125 171.230469 199.878906 165.117188 C 197.140625 160.488281 197.175781 160.753906 198.355469 158.132812 C 198.925781 156.878906 199.382812 155.816406 199.421875 155.816406 C 199.460938 155.816406 200.183594 157.183594 201.058594 158.855469 Z M 189.835938 162.726562 L 188.769531 164.929688 L 187.703125 163.144531 C 186.410156 160.90625 186.410156 160.449219 187.628906 158.019531 L 188.65625 156.046875 L 189.757812 158.285156 L 190.898438 160.488281 Z M 195.199219 158.09375 C 196.378906 160.449219 196.378906 160.90625 195.085938 163.144531 L 194.019531 164.929688 L 192.953125 162.726562 L 191.890625 160.523438 L 192.953125 158.359375 C 193.5625 157.183594 194.058594 156.199219 194.132812 156.199219 C 194.171875 156.199219 194.667969 157.03125 195.199219 158.09375 Z M 192.648438 167.777344 C 192.117188 168.761719 191.546875 169.558594 191.394531 169.558594 C 191.242188 169.558594 190.671875 168.761719 190.140625 167.8125 L 189.148438 166.066406 L 190.253906 163.753906 L 191.355469 161.4375 L 192.496094 163.753906 L 193.640625 166.03125 Z M 187.132812 163.789062 L 188.199219 165.726562 L 186.867188 168.117188 L 185.5 170.546875 L 183.027344 170.699219 C 181.65625 170.738281 180.554688 170.738281 180.554688 170.660156 C 180.554688 170.546875 180.972656 169.863281 181.464844 169.144531 C 181.960938 168.382812 183.101562 166.449219 184.015625 164.851562 C 184.925781 163.21875 185.765625 161.929688 185.878906 161.890625 C 185.992188 161.890625 186.5625 162.765625 187.132812 163.789062 Z M 198.773438 164.851562 C 199.6875 166.449219 200.828125 168.382812 201.324219 169.144531 C 201.816406 169.863281 202.238281 170.546875 202.238281 170.660156 C 202.238281 170.738281 201.132812 170.738281 199.765625 170.699219 L 197.292969 170.546875 L 195.921875 168.117188 L 194.589844 165.726562 L 195.65625 163.789062 C 196.226562 162.765625 196.796875 161.890625 196.910156 161.890625 C 197.023438 161.929688 197.863281 163.21875 198.773438 164.851562 Z M 189.796875 168.914062 L 190.785156 170.625 L 188.695312 170.625 C 187.550781 170.625 186.640625 170.546875 186.640625 170.394531 C 186.640625 170.015625 188.351562 167.207031 188.617188 167.207031 C 188.730469 167.207031 189.300781 167.964844 189.796875 168.914062 Z M 195.3125 168.726562 C 195.769531 169.523438 196.148438 170.28125 196.148438 170.394531 C 196.148438 170.546875 195.238281 170.625 194.097656 170.625 L 192.003906 170.625 L 192.992188 168.914062 C 193.488281 167.964844 194.058594 167.207031 194.171875 167.207031 C 194.324219 167.207031 194.820312 167.890625 195.3125 168.726562 Z M 183.785156 172.976562 C 183.253906 173.886719 182.683594 174.800781 182.53125 175.066406 C 182.378906 175.292969 181.085938 175.597656 179.640625 175.75 C 176.976562 176.050781 176.824219 175.976562 178.003906 174.609375 C 178.15625 174.382812 178.652344 173.699219 179.03125 173.015625 C 179.792969 171.761719 180.402344 171.535156 183.140625 171.421875 L 184.777344 171.382812 Z M 189.417969 173.28125 C 188.503906 174.949219 188.238281 175.179688 186.828125 175.40625 C 185.953125 175.519531 184.8125 175.558594 184.28125 175.484375 L 183.292969 175.367188 L 184.585938 173.355469 L 185.878906 171.382812 L 190.445312 171.382812 Z M 192.496094 173.355469 L 193.5625 175.179688 L 189.265625 175.179688 L 190.328125 173.320312 C 190.898438 172.253906 191.394531 171.457031 191.433594 171.496094 C 191.433594 171.535156 191.925781 172.371094 192.496094 173.355469 Z M 198.203125 173.355469 L 199.496094 175.367188 L 198.507812 175.484375 C 197.976562 175.558594 196.835938 175.519531 195.960938 175.40625 C 194.550781 175.179688 194.285156 174.949219 193.371094 173.28125 L 192.347656 171.382812 L 196.910156 171.382812 Z M 201.855469 171.609375 C 202.65625 171.800781 203.300781 172.253906 203.757812 173.054688 C 204.175781 173.699219 204.632812 174.382812 204.785156 174.609375 C 205.964844 175.976562 205.8125 176.050781 203.148438 175.75 C 201.703125 175.597656 200.410156 175.292969 200.257812 175.066406 C 200.105469 174.800781 199.535156 173.886719 199.003906 172.976562 L 198.015625 171.382812 L 199.308594 171.382812 C 200.03125 171.382812 201.171875 171.496094 201.855469 171.609375 Z M 178.195312 172.597656 C 176.027344 176.316406 176.332031 176.128906 172.832031 176.507812 L 170.660156 176.734375 L 172.183594 174.535156 C 173.78125 172.253906 174.199219 172.066406 177.8125 171.839844 C 178.613281 171.761719 178.652344 171.839844 178.195312 172.597656 Z M 207.980469 172.140625 C 208.742188 172.140625 209.273438 172.636719 210.53125 174.457031 L 212.128906 176.734375 L 209.921875 176.507812 C 206.460938 176.128906 206.761719 176.316406 204.59375 172.558594 C 204.0625 171.648438 204.0625 171.648438 205.507812 171.875 C 206.34375 172.027344 207.449219 172.140625 207.980469 172.140625 Z M 172.183594 172.710938 C 172.183594 173.015625 170.964844 174.875 170.394531 175.484375 C 170.128906 175.75 169.785156 176.203125 169.636719 176.46875 C 169.332031 176.925781 164.613281 177.988281 164.269531 177.683594 C 163.929688 177.304688 167.3125 173.28125 168.113281 173.128906 C 168.570312 173.015625 169.292969 172.863281 169.710938 172.789062 C 170.890625 172.523438 172.183594 172.484375 172.183594 172.710938 Z M 215.207031 173.320312 C 215.894531 173.660156 218.746094 177.457031 218.519531 177.683594 C 218.175781 177.988281 213.457031 176.886719 213.15625 176.46875 C 213.003906 176.203125 212.660156 175.75 212.394531 175.484375 C 211.785156 174.835938 210.605469 173.015625 210.605469 172.671875 C 210.605469 172.371094 214.410156 172.902344 215.207031 173.320312 Z M 165.714844 173.773438 C 165.714844 173.851562 165.03125 174.835938 164.195312 175.9375 L 162.636719 177.988281 L 157.042969 179.46875 C 151.601562 180.875 143.652344 183.378906 140.988281 184.554688 C 136.386719 186.566406 131.328125 189.109375 128.664062 190.742188 C 115.539062 198.640625 108.199219 208.167969 109.796875 215.269531 C 110.367188 217.8125 111.773438 219.519531 114.320312 220.695312 C 116.261719 221.609375 116.832031 221.683594 121.207031 221.683594 C 126.230469 221.644531 128.4375 221.226562 133.570312 219.328125 C 139.960938 216.976562 147.875 212.382812 154.644531 207.144531 C 159.136719 203.652344 160.238281 202.664062 165.90625 196.96875 L 170.851562 191.957031 L 173.4375 191.691406 C 175.152344 191.503906 175.988281 191.539062 175.988281 191.808594 C 175.988281 192.300781 163.851562 204.5625 161.609375 206.347656 C 160.695312 207.066406 159.628906 207.902344 159.25 208.246094 C 158.867188 208.546875 158.070312 209.15625 157.539062 209.574219 C 156.96875 209.953125 155.902344 210.789062 155.140625 211.359375 C 152.78125 213.179688 144.414062 218.230469 140.988281 219.859375 C 134.179688 223.125 126.039062 225.289062 120.410156 225.289062 C 113.027344 225.289062 107.625 222.175781 106.144531 217.015625 C 104.429688 211.167969 108.804688 202.359375 117.0625 195.070312 C 117.972656 194.234375 119.078125 193.289062 119.496094 192.90625 C 119.914062 192.488281 122.273438 190.859375 124.707031 189.226562 C 134.179688 182.886719 146.46875 177.796875 159.628906 174.800781 C 161.609375 174.34375 163.433594 173.925781 163.625 173.851562 C 164.117188 173.660156 165.714844 173.621094 165.714844 173.773438 Z M 223.539062 174.835938 C 236.96875 178.0625 248.761719 182.960938 258.082031 189.226562 C 260.515625 190.859375 262.875 192.488281 263.292969 192.90625 C 263.710938 193.289062 264.816406 194.234375 265.726562 195.070312 C 273.984375 202.359375 278.359375 211.167969 276.644531 217.015625 C 275.164062 222.175781 269.761719 225.289062 262.378906 225.289062 C 256.75 225.289062 248.609375 223.125 241.800781 219.859375 C 238.375 218.230469 230.007812 213.179688 227.648438 211.359375 C 226.886719 210.789062 225.824219 209.953125 225.25 209.574219 C 224.71875 209.15625 223.921875 208.546875 223.539062 208.246094 C 223.160156 207.902344 222.09375 207.066406 221.179688 206.347656 C 218.9375 204.5625 206.800781 192.300781 206.800781 191.808594 C 206.800781 191.539062 207.636719 191.503906 209.351562 191.691406 L 211.9375 191.957031 L 216.882812 196.96875 C 222.550781 202.664062 223.652344 203.652344 228.144531 207.144531 C 234.914062 212.382812 242.828125 216.976562 249.21875 219.328125 C 254.355469 221.226562 256.558594 221.644531 261.582031 221.683594 C 265.957031 221.683594 266.527344 221.609375 268.46875 220.695312 C 274.515625 217.847656 274.78125 210.863281 269.191406 203.421875 C 263.976562 196.515625 255.152344 190.441406 241.800781 184.554688 C 239.136719 183.378906 231.1875 180.875 225.746094 179.46875 L 220.15625 177.988281 L 218.59375 175.9375 C 217.757812 174.835938 217.074219 173.8125 217.074219 173.734375 C 217.074219 173.46875 219.851562 173.964844 223.539062 174.835938 Z M 187.171875 176.964844 C 186.828125 177.570312 186.144531 178.59375 185.726562 179.242188 C 184.964844 180.457031 184.851562 180.492188 182.304688 180.492188 L 179.679688 180.492188 L 180.703125 179.242188 C 181.277344 178.59375 181.921875 177.648438 182.152344 177.191406 C 182.492188 176.46875 182.949219 176.316406 185.078125 176.203125 C 186.449219 176.128906 187.667969 176.050781 187.742188 176.015625 C 187.820312 175.976562 187.550781 176.394531 187.171875 176.964844 Z M 195.199219 177.914062 L 196.53125 179.925781 L 194.097656 180.039062 C 192.726562 180.113281 190.40625 180.113281 188.921875 180.039062 L 186.257812 179.925781 L 187.589844 177.914062 L 188.960938 175.9375 L 193.828125 175.9375 Z M 200.675781 177.191406 C 200.90625 177.648438 201.515625 178.59375 202.085938 179.242188 L 203.113281 180.492188 L 200.488281 180.492188 C 197.9375 180.492188 197.824219 180.457031 197.0625 179.242188 C 196.644531 178.59375 195.996094 177.609375 195.65625 177.078125 L 195.046875 176.128906 L 197.632812 176.242188 C 199.839844 176.355469 200.296875 176.507812 200.675781 177.191406 Z M 181.429688 176.773438 C 181.277344 177.039062 180.554688 178.0625 179.828125 179.011719 C 178.613281 180.722656 178.5 180.796875 176.253906 180.988281 C 174.960938 181.101562 173.820312 181.140625 173.742188 181.0625 C 173.667969 180.949219 174.238281 179.960938 175.035156 178.824219 C 176.40625 176.8125 176.519531 176.734375 178.421875 176.582031 C 179.488281 176.507812 180.667969 176.433594 181.046875 176.394531 C 181.503906 176.355469 181.617188 176.46875 181.429688 176.773438 Z M 204.898438 176.699219 C 206.15625 176.699219 206.421875 176.886719 207.753906 178.785156 C 208.550781 179.960938 209.121094 180.949219 209.046875 181.0625 C 208.96875 181.140625 207.828125 181.101562 206.535156 180.988281 C 204.289062 180.796875 204.175781 180.722656 202.960938 179.011719 C 200.828125 176.089844 200.828125 176.164062 202.238281 176.433594 C 202.921875 176.582031 204.101562 176.699219 204.898438 176.699219 Z M 174.085938 178.671875 C 173.4375 179.582031 172.714844 180.570312 172.449219 180.910156 C 172.183594 181.289062 170.929688 181.632812 169.253906 181.859375 C 166.171875 182.277344 166.210938 182.542969 168.875 179.277344 C 170.359375 177.457031 170.625 177.34375 174.199219 177.152344 L 175.265625 177.078125 Z M 213.574219 178.898438 C 214.296875 179.660156 215.171875 180.722656 215.550781 181.253906 L 216.234375 182.238281 L 213.535156 181.859375 C 211.824219 181.632812 210.605469 181.289062 210.339844 180.910156 C 210.074219 180.570312 209.3125 179.542969 208.664062 178.632812 L 207.449219 177 L 209.882812 177.230469 C 212.050781 177.457031 212.46875 177.648438 213.574219 178.898438 Z M 168.378906 178.101562 C 168.378906 178.292969 167.617188 179.355469 166.707031 180.53125 C 165.222656 182.429688 164.839844 182.695312 163.28125 182.886719 C 162.332031 183.039062 161.074219 183.265625 160.542969 183.378906 C 159.667969 183.605469 159.59375 183.570312 159.933594 182.921875 C 160.164062 182.503906 161 181.441406 161.875 180.492188 C 163.394531 178.785156 163.851562 178.59375 168.113281 177.875 C 168.265625 177.875 168.378906 177.949219 168.378906 178.101562 Z M 217.300781 178.40625 C 218.859375 178.632812 219.429688 178.9375 220.800781 180.417969 C 221.714844 181.40625 222.628906 182.503906 222.855469 182.921875 C 223.199219 183.570312 223.121094 183.605469 222.246094 183.378906 C 221.714844 183.265625 220.457031 183.039062 219.507812 182.886719 C 217.949219 182.695312 217.566406 182.429688 216.082031 180.53125 C 214.371094 178.328125 214.03125 177.609375 214.941406 177.949219 C 215.207031 178.0625 216.273438 178.253906 217.300781 178.40625 Z M 159.894531 181.441406 C 158.144531 183.644531 157.691406 184.023438 155.824219 184.519531 C 154.683594 184.859375 152.289062 185.542969 150.5 186.035156 C 136.917969 190.023438 123.527344 197.578125 117.820312 204.484375 C 115.195312 207.714844 114.359375 209.574219 114.359375 212.34375 C 114.359375 216.332031 116.300781 217.699219 121.929688 217.699219 C 129.160156 217.699219 139.390625 213.253906 148.789062 206.042969 C 154.457031 201.675781 155.066406 201.144531 161.339844 195.070312 C 163.167969 193.289062 163.546875 193.097656 166.097656 192.679688 C 167.617188 192.453125 168.910156 192.300781 168.988281 192.375 C 169.179688 192.566406 161.339844 200.460938 158.90625 202.511719 C 157.765625 203.460938 156.664062 204.410156 156.433594 204.601562 C 156.207031 204.828125 154.988281 205.777344 153.734375 206.6875 C 152.476562 207.636719 151.375 208.511719 151.261719 208.625 C 151.148438 208.777344 149.359375 209.992188 147.265625 211.320312 C 135.28125 219.027344 123.527344 222.558594 116.605469 220.507812 C 108.804688 218.230469 108.386719 211.09375 115.578125 202.472656 C 123.222656 193.289062 137.984375 185.390625 156.777344 180.34375 C 159.515625 179.621094 161.761719 179.011719 161.796875 179.011719 C 161.875 178.976562 161 180.074219 159.894531 181.441406 Z M 234.839844 182.960938 C 254.355469 189.453125 269.34375 200.765625 272.003906 211.015625 C 273.222656 215.648438 271.128906 219.0625 266.183594 220.507812 C 259.261719 222.558594 247.507812 219.027344 235.523438 211.320312 C 233.429688 209.992188 231.644531 208.777344 231.527344 208.625 C 231.414062 208.511719 230.3125 207.636719 229.054688 206.6875 C 227.800781 205.777344 226.582031 204.828125 226.355469 204.601562 C 226.125 204.410156 225.023438 203.460938 223.882812 202.511719 C 221.449219 200.460938 213.609375 192.566406 213.800781 192.375 C 213.878906 192.300781 215.171875 192.453125 216.691406 192.679688 C 219.242188 193.097656 219.621094 193.289062 221.449219 195.070312 C 227.726562 201.144531 228.332031 201.675781 234 206.042969 C 238.222656 209.269531 242.027344 211.585938 246.9375 213.9375 C 252.375 216.519531 256.675781 217.699219 260.859375 217.699219 C 266.488281 217.699219 268.429688 216.332031 268.429688 212.34375 C 268.429688 209.574219 267.59375 207.714844 264.96875 204.484375 C 259.261719 197.578125 245.871094 190.023438 232.289062 186.035156 C 230.5 185.542969 228.105469 184.859375 226.964844 184.519531 C 225.101562 184.023438 224.644531 183.644531 222.894531 181.480469 L 220.953125 179.050781 L 225.976562 180.378906 C 228.714844 181.101562 232.707031 182.238281 234.839844 182.960938 Z M 197.671875 181.707031 C 198.128906 182.203125 198.773438 183.039062 199.117188 183.605469 C 199.460938 184.214844 199.878906 184.667969 200.03125 184.667969 C 200.183594 184.667969 200.335938 184.785156 200.335938 184.933594 C 200.335938 185.125 196.300781 185.238281 191.394531 185.238281 C 186.488281 185.238281 182.453125 185.125 182.453125 184.933594 C 182.453125 184.785156 182.605469 184.667969 182.757812 184.667969 C 182.910156 184.667969 183.328125 184.214844 183.671875 183.605469 C 185.308594 180.910156 185.382812 180.875 191.394531 180.875 C 196.605469 180.875 196.910156 180.910156 197.671875 181.707031 Z M 182.757812 183.339844 C 181.695312 184.707031 180.855469 185.429688 180.324219 185.429688 C 179.867188 185.429688 178.6875 185.542969 177.699219 185.695312 L 175.875 185.921875 L 176.9375 184.441406 C 179.257812 181.289062 179.335938 181.253906 181.960938 181.253906 L 184.394531 181.253906 Z M 205.128906 183.53125 C 206.003906 184.667969 206.6875 185.65625 206.613281 185.734375 C 206.574219 185.808594 205.394531 185.734375 204.0625 185.582031 C 201.628906 185.351562 201.550781 185.316406 199.953125 183.265625 L 198.355469 181.214844 L 200.941406 181.328125 L 203.53125 181.441406 Z M 177.089844 182.847656 C 175.683594 184.898438 174.125 186.1875 173.019531 186.1875 C 172.449219 186.1875 171.308594 186.300781 170.472656 186.453125 L 168.949219 186.683594 L 170.472656 184.820312 C 171.308594 183.796875 172.183594 182.773438 172.410156 182.503906 C 172.792969 182.089844 174.125 181.859375 176.863281 181.707031 L 177.929688 181.632812 Z M 210.414062 182.542969 C 210.644531 182.773438 211.480469 183.796875 212.316406 184.820312 L 213.839844 186.683594 L 212.316406 186.453125 C 211.480469 186.300781 210.339844 186.1875 209.769531 186.1875 C 208.664062 186.1875 207.105469 184.898438 205.660156 182.847656 L 204.785156 181.558594 L 207.410156 181.824219 C 208.816406 181.972656 210.1875 182.316406 210.414062 182.542969 Z M 171.042969 182.621094 C 171.042969 182.773438 170.28125 183.796875 169.332031 184.898438 C 167.695312 186.796875 167.503906 186.910156 164.917969 187.328125 C 163.433594 187.59375 162.179688 187.707031 162.101562 187.667969 C 162.027344 187.59375 162.863281 186.53125 163.929688 185.351562 C 165.714844 183.339844 166.097656 183.113281 168 182.808594 C 170.8125 182.355469 171.042969 182.355469 171.042969 182.621094 Z M 215.4375 182.960938 C 216.769531 183.152344 217.339844 183.570312 218.976562 185.46875 C 220.039062 186.683594 220.726562 187.707031 220.457031 187.707031 C 220.191406 187.707031 218.898438 187.515625 217.566406 187.289062 C 215.324219 186.910156 215.058594 186.71875 213.457031 184.859375 C 212.507812 183.757812 211.746094 182.773438 211.746094 182.621094 C 211.746094 182.46875 212.203125 182.429688 212.8125 182.542969 C 213.382812 182.65625 214.5625 182.847656 215.4375 182.960938 Z M 163.777344 184.175781 C 163.472656 184.554688 163.054688 185.050781 162.824219 185.277344 C 162.597656 185.542969 161.949219 186.265625 161.378906 186.949219 C 160.542969 187.972656 159.820312 188.3125 157.421875 188.882812 C 155.824219 189.261719 154.457031 189.527344 154.417969 189.453125 C 154.378906 189.414062 155.292969 188.3125 156.511719 187.023438 C 158.449219 184.898438 158.90625 184.59375 160.960938 184.136719 C 164.195312 183.378906 164.421875 183.378906 163.777344 184.175781 Z M 221.636719 184.136719 C 224.109375 184.707031 224.414062 184.859375 226.355469 187.0625 C 227.496094 188.351562 228.410156 189.414062 228.371094 189.453125 C 228.332031 189.527344 226.964844 189.261719 225.367188 188.882812 C 222.96875 188.3125 222.246094 187.972656 221.410156 186.949219 C 220.839844 186.265625 220.191406 185.542969 219.964844 185.277344 C 219.050781 184.328125 218.519531 183.53125 218.746094 183.53125 C 218.898438 183.53125 220.191406 183.796875 221.636719 184.136719 Z M 156.207031 185.695312 C 156.207031 185.882812 155.292969 186.949219 154.191406 188.125 C 152.402344 190.058594 151.945312 190.324219 149.167969 191.085938 C 145.402344 192.148438 138.441406 194.882812 134.140625 197.046875 C 126.722656 200.726562 119.839844 206.421875 118.964844 209.609375 C 118.394531 211.660156 118.429688 211.925781 119.496094 212.953125 C 120.292969 213.789062 120.75 213.902344 123.035156 213.902344 C 126.152344 213.902344 128.625 213.21875 133.191406 211.09375 C 138.363281 208.664062 147.074219 202.472656 152.628906 197.3125 C 155.140625 194.957031 155.332031 194.84375 158.375 194.121094 C 160.011719 193.78125 161.378906 193.515625 161.417969 193.554688 C 161.53125 193.667969 155.710938 199.285156 153.503906 201.183594 C 151.640625 202.816406 145.441406 207.371094 142.28125 209.460938 C 138.972656 211.625 132.621094 214.660156 129.007812 215.800781 C 125.734375 216.824219 120.371094 217.203125 118.429688 216.597656 C 113.714844 215.039062 114.132812 209.800781 119.457031 204.105469 C 125.542969 197.613281 135.585938 191.882812 148.21875 187.707031 C 155.179688 185.390625 156.207031 185.125 156.207031 185.695312 Z M 234.570312 187.707031 C 247.203125 191.882812 257.246094 197.613281 263.332031 204.105469 C 267.515625 208.546875 268.734375 212.574219 266.71875 215.003906 C 265.347656 216.597656 263.597656 217.089844 259.71875 216.824219 C 252.566406 216.40625 244.578125 212.6875 234.191406 204.980469 C 232.214844 203.539062 230.007812 201.789062 229.285156 201.183594 C 227.078125 199.285156 221.257812 193.667969 221.371094 193.554688 C 221.410156 193.515625 222.777344 193.78125 224.414062 194.121094 C 227.457031 194.84375 227.648438 194.957031 230.160156 197.3125 C 235.714844 202.472656 244.425781 208.664062 249.597656 211.09375 C 254.164062 213.21875 256.636719 213.902344 259.753906 213.902344 C 262.039062 213.902344 262.496094 213.789062 263.292969 212.953125 C 264.359375 211.925781 264.398438 211.660156 263.828125 209.609375 C 262.953125 206.421875 256.066406 200.726562 248.648438 197.046875 C 244.347656 194.882812 237.386719 192.148438 233.621094 191.085938 C 230.84375 190.324219 230.386719 190.058594 228.597656 188.125 C 227.496094 186.949219 226.582031 185.847656 226.582031 185.695312 C 226.582031 185.199219 228.449219 185.695312 234.570312 187.707031 Z M 199.042969 186.035156 C 201.132812 186.265625 201.398438 186.378906 202.425781 187.820312 C 203.074219 188.65625 203.683594 189.527344 203.835938 189.757812 C 203.988281 190.058594 200.296875 190.175781 191.394531 190.175781 C 182.492188 190.175781 178.804688 190.058594 178.957031 189.757812 C 180.628906 187.0625 181.578125 186.226562 183.027344 186.074219 C 185.726562 185.847656 196.71875 185.808594 199.042969 186.035156 Z M 179.335938 187.78125 C 177.320312 190.402344 177.128906 190.515625 174.503906 190.78125 C 173.132812 190.933594 171.917969 190.972656 171.839844 190.933594 C 171.765625 190.859375 172.527344 189.832031 173.515625 188.695312 C 175.378906 186.492188 175.035156 186.605469 179.714844 186.265625 C 180.589844 186.1875 180.589844 186.226562 179.335938 187.78125 Z M 209.160156 188.578125 C 211.175781 190.78125 211.40625 191.3125 210.148438 190.972656 C 209.65625 190.859375 208.589844 190.742188 207.714844 190.742188 C 206.003906 190.742188 205.394531 190.324219 203.414062 187.78125 L 202.160156 186.148438 L 204.746094 186.414062 C 207.296875 186.644531 207.410156 186.683594 209.160156 188.578125 Z M 173.285156 187.59375 C 170.699219 190.894531 170.167969 191.273438 167.046875 191.730469 C 163.851562 192.1875 163.851562 192.414062 166.859375 189.148438 C 168.226562 187.707031 169.824219 187.097656 172.714844 186.984375 C 173.707031 186.949219 173.742188 187.023438 173.285156 187.59375 Z M 212.546875 187.328125 C 214.601562 187.707031 215.058594 188.085938 217.910156 191.351562 C 218.59375 192.109375 218.554688 192.109375 215.742188 191.730469 C 212.621094 191.273438 212.089844 190.894531 209.503906 187.59375 C 209.046875 187.023438 209.085938 186.949219 209.730469 186.949219 C 210.148438 186.949219 211.441406 187.136719 212.546875 187.328125 Z M 164.839844 190.097656 C 162.789062 192.414062 162.671875 192.488281 160.085938 192.945312 C 158.640625 193.171875 157.195312 193.476562 156.851562 193.628906 C 156.511719 193.742188 157.308594 192.753906 158.601562 191.390625 C 160.886719 188.960938 161.039062 188.882812 163.816406 188.351562 C 165.375 188.011719 166.742188 187.746094 166.78125 187.746094 C 166.859375 187.707031 165.984375 188.769531 164.839844 190.097656 Z M 224.1875 191.390625 C 225.480469 192.753906 226.277344 193.742188 225.9375 193.628906 C 225.59375 193.476562 224.148438 193.171875 222.703125 192.945312 C 220.15625 192.488281 220.003906 192.414062 218.023438 190.136719 L 215.96875 187.78125 L 218.898438 188.351562 C 221.789062 188.882812 221.867188 188.960938 224.1875 191.390625 Z M 157.003906 191.65625 C 154.835938 193.855469 154.304688 194.160156 152.058594 194.730469 C 150.691406 195.070312 149.246094 195.414062 148.863281 195.527344 C 148.484375 195.640625 149.28125 194.617188 150.613281 193.25 C 153.125 190.667969 153.46875 190.515625 159.25 189.261719 C 159.324219 189.226562 158.335938 190.324219 157.003906 191.65625 Z M 232.175781 193.25 C 233.507812 194.617188 234.304688 195.640625 233.925781 195.527344 C 233.546875 195.414062 232.097656 195.070312 230.730469 194.730469 C 228.484375 194.160156 227.953125 193.855469 225.824219 191.691406 L 223.464844 189.300781 L 226.582031 190.023438 C 229.625 190.742188 229.816406 190.859375 232.175781 193.25 Z M 148.40625 194.085938 C 146.085938 196.285156 145.363281 196.742188 142.890625 197.539062 C 133.230469 200.574219 123.109375 206.6875 123.109375 209.460938 C 123.109375 210.410156 123.222656 210.484375 124.820312 210.484375 C 127.105469 210.484375 129.917969 209.382812 133.914062 206.878906 C 136.804688 205.054688 141.523438 201.675781 142.128906 200.992188 C 142.246094 200.878906 143.308594 199.96875 144.488281 198.945312 C 146.238281 197.5 147.34375 196.933594 149.816406 196.210938 C 151.527344 195.71875 153.011719 195.300781 153.085938 195.300781 C 153.847656 195.300781 147 201.109375 142.320312 204.449219 C 134.484375 210.066406 127.597656 213.140625 122.957031 213.140625 C 119.570312 213.140625 118.8125 211.359375 120.867188 208.167969 C 123.871094 203.5 133.496094 197.578125 144.414062 193.667969 C 147.039062 192.753906 149.433594 191.882812 149.738281 191.769531 C 151.148438 191.273438 150.878906 191.691406 148.40625 194.085938 Z M 238.375 193.667969 C 249.292969 197.578125 258.917969 203.5 261.925781 208.167969 C 265.386719 213.523438 260.628906 214.773438 251.5 210.976562 C 248.496094 209.726562 244.691406 207.484375 240.46875 204.449219 C 235.789062 201.109375 228.941406 195.300781 229.703125 195.300781 C 229.777344 195.300781 231.261719 195.71875 232.972656 196.210938 C 235.445312 196.933594 236.550781 197.5 238.300781 198.945312 C 239.480469 199.96875 240.542969 200.878906 240.660156 200.992188 C 241.265625 201.675781 245.984375 205.054688 248.875 206.878906 C 252.871094 209.382812 255.683594 210.484375 257.96875 210.484375 C 259.566406 210.484375 259.679688 210.410156 259.679688 209.460938 C 259.679688 206.6875 249.5625 200.574219 239.898438 197.539062 C 237.386719 196.742188 236.703125 196.324219 234.382812 194.046875 C 231.339844 191.085938 231.222656 191.125 238.375 193.667969 Z M 142.890625 199.132812 C 136.195312 204.867188 127.371094 209.992188 124.707031 209.648438 L 123.792969 209.535156 L 124.632812 208.472656 C 125.773438 207.066406 129.578125 204.410156 133 202.664062 C 135.511719 201.375 143.539062 197.996094 144.03125 197.996094 C 144.148438 197.996094 143.613281 198.488281 142.890625 199.132812 Z M 246.363281 201.070312 C 252.300781 203.726562 257.550781 207.105469 258.539062 208.964844 C 258.878906 209.648438 258.84375 209.726562 258.007812 209.726562 C 254.960938 209.726562 246.25 204.636719 239.898438 199.09375 L 238.566406 197.957031 L 241.039062 198.867188 C 242.410156 199.359375 244.804688 200.347656 246.363281 201.070312 Z M 246.363281 201.070312 " fill-opacity="1" fill-rule="nonzero"/></g><g fill="#022179" fill-opacity="1"><g transform="translate(155.927245, 275.08747)"><g><path d="M 8.203125 0 L 3.59375 0 L 3.59375 -27.359375 L 8.203125 -27.359375 Z M 8.203125 0 "/></g></g></g><g fill="#022179" fill-opacity="1"><g transform="translate(169.721327, 275.08747)"><g><path d="M 22.28125 -23.21875 L 13.609375 -23.21875 L 13.609375 0 L 8.984375 0 L 8.984375 -23.21875 L 0.359375 -23.21875 L 0.359375 -27.359375 L 22.28125 -27.359375 Z M 22.28125 -23.21875 "/></g></g></g><g fill="#022179" fill-opacity="1"><g transform="translate(194.338905, 275.08747)"><g><path d="M 15.71875 -27.484375 C 17.644531 -27.484375 19.523438 -27.109375 21.359375 -26.359375 C 23.203125 -25.617188 24.785156 -24.585938 26.109375 -23.265625 L 23.421875 -19.90625 C 22.429688 -20.96875 21.253906 -21.8125 19.890625 -22.4375 C 18.535156 -23.0625 17.171875 -23.375 15.796875 -23.375 C 13.054688 -23.375 10.738281 -22.441406 8.84375 -20.578125 C 6.957031 -18.710938 6.015625 -16.441406 6.015625 -13.765625 C 6.015625 -11.046875 6.957031 -8.753906 8.84375 -6.890625 C 10.738281 -5.035156 13.054688 -4.109375 15.796875 -4.109375 C 18.640625 -4.109375 21.179688 -5.1875 23.421875 -7.34375 L 26.15625 -4.296875 C 24.75 -2.921875 23.101562 -1.828125 21.21875 -1.015625 C 19.34375 -0.203125 17.457031 0.203125 15.5625 0.203125 C 11.539062 0.203125 8.160156 -1.128906 5.421875 -3.796875 C 2.691406 -6.472656 1.328125 -9.78125 1.328125 -13.71875 C 1.328125 -17.601562 2.710938 -20.867188 5.484375 -23.515625 C 8.265625 -26.160156 11.675781 -27.484375 15.71875 -27.484375 Z M 15.71875 -27.484375 "/></g></g></g><g fill="#022179" fill-opacity="1"><g transform="translate(102.709324, 297.665041)"><g><path d="M 3.1875 -5.59375 L 3.1875 -1.15625 L 9.25 -1.15625 L 9.25 0 L 1.796875 0 L 1.796875 -11.875 L 9.109375 -11.875 L 9.109375 -10.71875 L 3.1875 -10.71875 L 3.1875 -6.75 L 8.421875 -6.75 L 8.421875 -5.59375 Z M 3.1875 -5.59375 "/></g></g></g><g fill="#022179" fill-opacity="1"><g transform="translate(123.779745, 297.665041)"><g><path d="M 4.640625 0.171875 C 3.921875 0.171875 3.285156 0 2.734375 -0.34375 C 2.191406 -0.6875 1.765625 -1.203125 1.453125 -1.890625 C 1.140625 -2.585938 0.984375 -3.453125 0.984375 -4.484375 C 0.984375 -5.503906 1.144531 -6.359375 1.46875 -7.046875 C 1.789062 -7.742188 2.238281 -8.265625 2.8125 -8.609375 C 3.382812 -8.960938 4.046875 -9.140625 4.796875 -9.140625 C 5.398438 -9.140625 5.9375 -9.023438 6.40625 -8.796875 C 6.882812 -8.566406 7.296875 -8.195312 7.640625 -7.6875 L 7.8125 -7.71875 L 7.8125 -12.5625 L 9.140625 -12.5625 L 9.140625 0 L 7.8125 0 L 7.8125 -1.3125 L 7.640625 -1.34375 C 7.347656 -0.894531 6.953125 -0.53125 6.453125 -0.25 C 5.953125 0.03125 5.347656 0.171875 4.640625 0.171875 Z M 5.0625 -1.015625 C 5.894531 -1.015625 6.5625 -1.300781 7.0625 -1.875 C 7.5625 -2.445312 7.8125 -3.316406 7.8125 -4.484375 C 7.8125 -5.648438 7.5625 -6.519531 7.0625 -7.09375 C 6.5625 -7.664062 5.894531 -7.953125 5.0625 -7.953125 C 4.195312 -7.953125 3.53125 -7.671875 3.0625 -7.109375 C 2.601562 -6.546875 2.375 -5.671875 2.375 -4.484375 C 2.375 -2.171875 3.269531 -1.015625 5.0625 -1.015625 Z M 5.0625 -1.015625 "/></g></g></g><g fill="#022179" fill-opacity="1"><g transform="translate(145.51639, 297.665041)"><g><path d="M 4.421875 0.171875 C 3.410156 0.171875 2.65625 -0.09375 2.15625 -0.625 C 1.664062 -1.164062 1.421875 -1.953125 1.421875 -2.984375 L 1.421875 -8.96875 L 2.75 -8.96875 L 2.75 -3.015625 C 2.75 -1.660156 3.382812 -0.984375 4.65625 -0.984375 C 5.46875 -0.984375 6.109375 -1.25 6.578125 -1.78125 C 7.054688 -2.3125 7.296875 -3.171875 7.296875 -4.359375 L 7.296875 -8.96875 L 8.625 -8.96875 L 8.625 0 L 7.375 0 L 7.375 -1.40625 L 7.203125 -1.453125 C 6.890625 -0.898438 6.515625 -0.488281 6.078125 -0.21875 C 5.648438 0.0390625 5.097656 0.171875 4.421875 0.171875 Z M 4.421875 0.171875 "/></g></g></g><g fill="#022179" fill-opacity="1"><g transform="translate(166.733052, 297.665041)"><g><path d="M 5.140625 0.171875 C 4.347656 0.171875 3.640625 -0.00390625 3.015625 -0.359375 C 2.390625 -0.722656 1.894531 -1.253906 1.53125 -1.953125 C 1.164062 -2.660156 0.984375 -3.503906 0.984375 -4.484375 C 0.984375 -5.460938 1.164062 -6.300781 1.53125 -7 C 1.894531 -7.695312 2.390625 -8.226562 3.015625 -8.59375 C 3.640625 -8.957031 4.347656 -9.140625 5.140625 -9.140625 C 6.085938 -9.140625 6.84375 -8.957031 7.40625 -8.59375 C 7.96875 -8.238281 8.375 -7.765625 8.625 -7.171875 L 7.71875 -6.515625 L 7.5625 -6.515625 C 7.3125 -7.003906 6.992188 -7.363281 6.609375 -7.59375 C 6.234375 -7.832031 5.742188 -7.953125 5.140625 -7.953125 C 4.585938 -7.953125 4.101562 -7.820312 3.6875 -7.5625 C 3.269531 -7.300781 2.945312 -6.910156 2.71875 -6.390625 C 2.488281 -5.867188 2.375 -5.234375 2.375 -4.484375 C 2.375 -3.734375 2.488281 -3.097656 2.71875 -2.578125 C 2.957031 -2.054688 3.28125 -1.664062 3.6875 -1.40625 C 4.101562 -1.144531 4.585938 -1.015625 5.140625 -1.015625 C 5.765625 -1.015625 6.28125 -1.15625 6.6875 -1.4375 C 7.09375 -1.71875 7.414062 -2.160156 7.65625 -2.765625 L 7.828125 -2.765625 L 8.6875 -2.265625 C 8.457031 -1.503906 8.039062 -0.90625 7.4375 -0.46875 C 6.84375 -0.0390625 6.078125 0.171875 5.140625 0.171875 Z M 5.140625 0.171875 "/></g></g></g><g fill="#022179" fill-opacity="1"><g transform="translate(187.007258, 297.665041)"><g><path d="M 3.703125 0.171875 C 2.816406 0.171875 2.125 -0.0546875 1.625 -0.515625 C 1.132812 -0.972656 0.890625 -1.632812 0.890625 -2.5 C 0.890625 -3.03125 1 -3.476562 1.21875 -3.84375 C 1.4375 -4.207031 1.773438 -4.503906 2.234375 -4.734375 C 2.691406 -4.960938 3.289062 -5.140625 4.03125 -5.265625 C 4.6875 -5.367188 5.179688 -5.488281 5.515625 -5.625 C 5.859375 -5.757812 6.085938 -5.910156 6.203125 -6.078125 C 6.316406 -6.253906 6.375 -6.46875 6.375 -6.71875 C 6.375 -7.125 6.234375 -7.4375 5.953125 -7.65625 C 5.679688 -7.875 5.234375 -7.984375 4.609375 -7.984375 C 4.035156 -7.984375 3.539062 -7.867188 3.125 -7.640625 C 2.707031 -7.410156 2.328125 -7.078125 1.984375 -6.640625 L 1.8125 -6.640625 L 1.171875 -7.5625 C 1.546875 -8.039062 2.023438 -8.421875 2.609375 -8.703125 C 3.203125 -8.992188 3.867188 -9.140625 4.609375 -9.140625 C 5.671875 -9.140625 6.453125 -8.90625 6.953125 -8.4375 C 7.453125 -7.976562 7.703125 -7.335938 7.703125 -6.515625 L 7.703125 -1.765625 C 7.703125 -1.265625 7.914062 -1.015625 8.34375 -1.015625 C 8.476562 -1.015625 8.613281 -1.039062 8.75 -1.09375 L 8.859375 -1.0625 L 9.015625 -0.140625 C 8.910156 -0.078125 8.78125 -0.03125 8.625 0 C 8.46875 0.0390625 8.304688 0.0625 8.140625 0.0625 C 7.640625 0.0625 7.265625 -0.0390625 7.015625 -0.25 C 6.765625 -0.46875 6.601562 -0.789062 6.53125 -1.21875 L 6.359375 -1.234375 C 6.109375 -0.765625 5.765625 -0.410156 5.328125 -0.171875 C 4.898438 0.0546875 4.359375 0.171875 3.703125 0.171875 Z M 3.984375 -0.890625 C 4.484375 -0.890625 4.914062 -1.003906 5.28125 -1.234375 C 5.644531 -1.460938 5.925781 -1.785156 6.125 -2.203125 C 6.320312 -2.617188 6.421875 -3.097656 6.421875 -3.640625 L 6.421875 -4.78125 L 6.265625 -4.8125 C 6.066406 -4.675781 5.820312 -4.5625 5.53125 -4.46875 C 5.25 -4.375 4.847656 -4.285156 4.328125 -4.203125 C 3.804688 -4.140625 3.390625 -4.035156 3.078125 -3.890625 C 2.773438 -3.742188 2.5625 -3.554688 2.4375 -3.328125 C 2.3125 -3.097656 2.25 -2.820312 2.25 -2.5 C 2.25 -1.96875 2.398438 -1.566406 2.703125 -1.296875 C 3.015625 -1.023438 3.441406 -0.890625 3.984375 -0.890625 Z M 3.984375 -0.890625 "/></g></g></g><g fill="#022179" fill-opacity="1"><g transform="translate(207.313964, 297.665041)"><g><path d="M 6.0625 -1.421875 L 6.484375 -0.46875 C 6.273438 -0.257812 6 -0.101562 5.65625 0 C 5.3125 0.113281 4.9375 0.171875 4.53125 0.171875 C 2.820312 0.171875 1.96875 -0.691406 1.96875 -2.421875 L 1.96875 -7.875 L 0.40625 -7.875 L 0.40625 -8.96875 L 1.96875 -8.96875 L 1.96875 -10.859375 L 3.296875 -11.078125 L 3.296875 -8.96875 L 6.171875 -8.96875 L 6.171875 -7.875 L 3.296875 -7.875 L 3.296875 -2.5625 C 3.296875 -1.53125 3.738281 -1.015625 4.625 -1.015625 C 5.113281 -1.015625 5.535156 -1.148438 5.890625 -1.421875 Z M 6.0625 -1.421875 "/></g></g></g><g fill="#022179" fill-opacity="1"><g transform="translate(225.175142, 297.665041)"><g><path d="M 2.21875 -10.6875 C 1.9375 -10.6875 1.707031 -10.773438 1.53125 -10.953125 C 1.363281 -11.128906 1.28125 -11.351562 1.28125 -11.625 C 1.28125 -11.894531 1.363281 -12.117188 1.53125 -12.296875 C 1.707031 -12.472656 1.9375 -12.5625 2.21875 -12.5625 C 2.507812 -12.5625 2.738281 -12.472656 2.90625 -12.296875 C 3.082031 -12.117188 3.171875 -11.894531 3.171875 -11.625 C 3.171875 -11.351562 3.082031 -11.128906 2.90625 -10.953125 C 2.738281 -10.773438 2.507812 -10.6875 2.21875 -10.6875 Z M 1.5625 0 L 1.5625 -8.96875 L 2.890625 -8.96875 L 2.890625 0 Z M 1.5625 0 "/></g></g></g><g fill="#022179" fill-opacity="1"><g transform="translate(240.65579, 297.665041)"><g><path d="M 5.140625 0.171875 C 4.296875 0.171875 3.5625 -0.00390625 2.9375 -0.359375 C 2.3125 -0.722656 1.828125 -1.25 1.484375 -1.9375 C 1.148438 -2.632812 0.984375 -3.484375 0.984375 -4.484375 C 0.984375 -5.472656 1.148438 -6.316406 1.484375 -7.015625 C 1.828125 -7.710938 2.3125 -8.238281 2.9375 -8.59375 C 3.5625 -8.957031 4.296875 -9.140625 5.140625 -9.140625 C 5.984375 -9.140625 6.71875 -8.957031 7.34375 -8.59375 C 7.96875 -8.238281 8.445312 -7.710938 8.78125 -7.015625 C 9.125 -6.316406 9.296875 -5.472656 9.296875 -4.484375 C 9.296875 -3.484375 9.125 -2.632812 8.78125 -1.9375 C 8.445312 -1.25 7.96875 -0.722656 7.34375 -0.359375 C 6.71875 -0.00390625 5.984375 0.171875 5.140625 0.171875 Z M 5.140625 -1.015625 C 6.035156 -1.015625 6.71875 -1.296875 7.1875 -1.859375 C 7.664062 -2.421875 7.90625 -3.296875 7.90625 -4.484375 C 7.90625 -5.660156 7.664062 -6.53125 7.1875 -7.09375 C 6.71875 -7.664062 6.035156 -7.953125 5.140625 -7.953125 C 4.242188 -7.953125 3.554688 -7.664062 3.078125 -7.09375 C 2.609375 -6.53125 2.375 -5.660156 2.375 -4.484375 C 2.375 -3.296875 2.609375 -2.421875 3.078125 -1.859375 C 3.554688 -1.296875 4.242188 -1.015625 5.140625 -1.015625 Z M 5.140625 -1.015625 "/></g></g></g><g fill="#022179" fill-opacity="1"><g transform="translate(261.978079, 297.665041)"><g><path d="M 1.5625 0 L 1.5625 -8.96875 L 2.8125 -8.96875 L 2.8125 -7.5625 L 2.984375 -7.515625 C 3.285156 -8.035156 3.664062 -8.4375 4.125 -8.71875 C 4.59375 -9 5.160156 -9.140625 5.828125 -9.140625 C 6.898438 -9.140625 7.675781 -8.863281 8.15625 -8.3125 C 8.644531 -7.757812 8.890625 -6.910156 8.890625 -5.765625 L 8.890625 0 L 7.578125 0 L 7.578125 -5.734375 C 7.578125 -6.273438 7.503906 -6.707031 7.359375 -7.03125 C 7.222656 -7.363281 7.007812 -7.601562 6.71875 -7.75 C 6.425781 -7.90625 6.046875 -7.984375 5.578125 -7.984375 C 4.773438 -7.984375 4.125 -7.710938 3.625 -7.171875 C 3.132812 -6.640625 2.890625 -5.78125 2.890625 -4.59375 L 2.890625 0 Z M 1.5625 0 "/></g></g></g></svg>